<?xml version="1.0" encoding="UTF-8"?>
<svg id="Layer_2" data-name="Layer 2" xmlns="http://www.w3.org/2000/svg" viewBox="0 0 146.34 146.34">
  <defs>
    <style>
      .cls-1 {
        fill: #1f65ff;
        stroke-width: 0px;
      }
    </style>
  </defs>
  <g id="Layer_1-2" data-name="Layer 1">
    <g>
      <path class="cls-1" d="M69.94,16.91c1.05-1.82,3.68-1.81,4.72.02l26.6,46.94c.75,1.32,2.44,1.77,3.75,1l8.32-4.94c.63-.37.67-1.26.09-1.69l-5.79-4.34c-1.09-.82-.43-2.56.93-2.45l26.31,2.11c.4.03.69.41.61.8l-5.12,27.29c-.26,1.37-2.17,1.5-2.61.17l-2.33-7.96c-.26-.89-1.32-1.25-2.07-.72l-8.99,6.42c-1.21.79-1.59,2.4-.86,3.65l29.52,50.44c.91,1.56,3.3.91,3.3-.9V2.73c0-1.51-1.22-2.73-2.73-2.73H2.72C1.22,0,0,1.22,0,2.72v129.83c0,1.56,2.07,2.11,2.84.76L69.94,16.91Z"/>
      <path class="cls-1" d="M49.51,100.8l34.8-23.61c1.19-.72,1.64-2.21,1.06-3.47l-11.72-25.25c-.94-2.02-3.77-2.12-4.85-.17l-22.95,49.39c-1.06,2.29,1.56,4.52,3.65,3.1Z"/>
      <path class="cls-1" d="M113.15,146.34c1.26,0,2.13-1.25,1.67-2.43-3.88-9.86-18.19-46.41-18.19-46.41-.67-1.73-2.84-2.29-4.27-1.1l-56.15,46.64c-1.34,1.12-.55,3.3,1.19,3.3h75.74Z"/>
    </g>
  </g>
</svg>