<?xml version="1.0" encoding="UTF-8"?>
<svg id="Layer_2" data-name="Layer 2" xmlns="http://www.w3.org/2000/svg" viewBox="0 0 144.49 125.04">
  <defs>
    <style>
      .cls-1 {
        fill: #1f65ff;
        stroke-width: 0px;
      }
    </style>
  </defs>
  <g id="Layer_1-2" data-name="Layer 1">
    <path class="cls-1" d="M111.52,60.59l8.51-6.08c.71-.51,1.71-.16,1.96.68l2.21,7.54c.41,1.26,2.23,1.14,2.47-.16l4.85-25.83c.07-.38-.2-.73-.58-.76l-24.9-2c-1.29-.1-1.91,1.54-.88,2.32l5.48,4.11c.55.41.51,1.25-.09,1.6l-7.88,4.67c-1.24.73-2.84.31-3.55-.94L73.93,1.3c-.98-1.73-3.47-1.74-4.47-.02L.35,121.19c-.99,1.72.25,3.86,2.23,3.86h28.76c.6,0,1.18-.21,1.64-.59l57.7-47.93c1.35-1.12,3.4-.59,4.04,1.04l17.91,45.85c.39.99,1.34,1.64,2.4,1.64h26.89c1.99,0,3.22-2.16,2.22-3.87l-33.43-57.13c-.69-1.18-.34-2.7.81-3.45ZM50.12,80.68c-1.97,1.34-4.46-.77-3.45-2.94l21.72-46.75c1.02-1.84,3.7-1.75,4.59.16l11.09,23.89c.55,1.19.12,2.6-1,3.28l-32.94,22.35Z"/>
  </g>
</svg>